<svg width="31" height="31" viewBox="0 0 31 31" fill="none" xmlns="http://www.w3.org/2000/svg">
<path d="M15.5015 11.125C14.3412 11.125 13.2284 11.5859 12.4079 12.4064C11.5874 13.2269 11.1265 14.3397 11.1265 15.5C11.1265 16.6603 11.5874 17.7731 12.4079 18.5936C13.2284 19.4141 14.3412 19.875 15.5015 19.875C16.6618 19.875 17.7746 19.4141 18.5951 18.5936C19.4155 17.7731 19.8765 16.6603 19.8765 15.5C19.8765 14.3397 19.4155 13.2269 18.5951 12.4064C17.7746 11.5859 16.6618 11.125 15.5015 11.125ZM15.5015 8.20832C17.4353 8.20832 19.29 8.97655 20.6575 10.344C22.0249 11.7115 22.7931 13.5661 22.7931 15.5C22.7931 17.4339 22.0249 19.2885 20.6575 20.656C19.29 22.0234 17.4353 22.7917 15.5015 22.7917C13.5676 22.7917 11.7129 22.0234 10.3455 20.656C8.97804 19.2885 8.20981 17.4339 8.20981 15.5C8.20981 13.5661 8.97804 11.7115 10.3455 10.344C11.7129 8.97655 13.5676 8.20832 15.5015 8.20832ZM24.9806 7.84374C24.9806 8.32721 24.7886 8.79087 24.4467 9.13274C24.1049 9.4746 23.6412 9.66666 23.1577 9.66666C22.6743 9.66666 22.2106 9.4746 21.8687 9.13274C21.5269 8.79087 21.3348 8.32721 21.3348 7.84374C21.3348 7.36027 21.5269 6.89661 21.8687 6.55474C22.2106 6.21288 22.6743 6.02082 23.1577 6.02082C23.6412 6.02082 24.1049 6.21288 24.4467 6.55474C24.7886 6.89661 24.9806 7.36027 24.9806 7.84374ZM15.5015 3.83332C11.8936 3.83332 11.3044 3.84353 9.62585 3.91791C8.48252 3.97186 7.71544 4.12499 7.00377 4.40207C6.40853 4.62136 5.87024 4.97175 5.42877 5.42728C4.97271 5.8686 4.62182 6.4069 4.4021 7.00228C4.12502 7.71686 3.9719 8.48249 3.9194 9.62436C3.84356 11.2344 3.83335 11.7973 3.83335 15.5C3.83335 19.1094 3.84356 19.6971 3.91794 21.3756C3.9719 22.5175 4.12502 23.286 4.40065 23.9962C4.64856 24.6306 4.94023 25.0871 5.4244 25.5712C5.91585 26.0612 6.37231 26.3544 6.99939 26.5964C7.71981 26.875 8.4869 27.0296 9.6244 27.0821C11.2344 27.1579 11.7973 27.1667 15.5 27.1667C19.1094 27.1667 19.6971 27.1564 21.3756 27.0821C22.5161 27.0281 23.2831 26.875 23.9963 26.5994C24.5915 26.3801 25.1298 26.0297 25.5713 25.5742C26.0627 25.0842 26.3559 24.6277 26.5979 23.9992C26.875 23.2817 27.0296 22.5146 27.0821 21.3742C27.1579 19.7656 27.1667 19.2012 27.1667 15.5C27.1667 11.8921 27.1565 11.3029 27.0821 9.62436C27.0281 8.48395 26.8736 7.71395 26.5979 7.00228C26.3786 6.40704 26.0283 5.86875 25.5727 5.42728C25.1314 4.97122 24.5931 4.62033 23.9977 4.40061C23.2831 4.12353 22.5161 3.97041 21.3756 3.91791C19.7671 3.84207 19.2042 3.83332 15.5 3.83332M15.5 0.916656C19.4623 0.916656 19.9567 0.93124 21.5127 1.00416C23.0644 1.07707 24.1231 1.32061 25.0521 1.68228C26.0146 2.0527 26.8254 2.55436 27.6363 3.36374C28.3781 4.09252 28.952 4.97443 29.3177 5.94791C29.6779 6.87686 29.9229 7.93561 29.9959 9.48874C30.0644 11.0433 30.0834 11.5377 30.0834 15.5C30.0834 19.4623 30.0688 19.9567 29.9959 21.5112C29.9229 23.0658 29.6779 24.1217 29.3177 25.0521C28.952 26.0255 28.3781 26.9075 27.6363 27.6362C26.9075 28.3781 26.0256 28.9519 25.0521 29.3177C24.1231 29.6779 23.0644 29.9229 21.5127 29.9958C19.9567 30.0644 19.4623 30.0833 15.5 30.0833C11.5377 30.0833 11.0434 30.0687 9.48731 29.9958C7.93564 29.9229 6.87835 29.6779 5.94794 29.3177C4.97446 28.9519 4.09255 28.3781 3.36377 27.6362C2.62193 26.9075 2.04809 26.0255 1.68231 25.0521C1.32065 24.1231 1.0771 23.0644 1.00419 21.5112C0.934187 19.9567 0.916687 19.4623 0.916687 15.5C0.916687 11.5377 0.93127 11.0433 1.00419 9.48874C1.0771 7.93416 1.32065 6.87832 1.68231 5.94791C2.04809 4.97443 2.62193 4.09252 3.36377 3.36374C4.09255 2.62189 4.97446 2.04805 5.94794 1.68228C6.87689 1.32061 7.93419 1.07707 9.48731 1.00416C11.0448 0.935615 11.5392 0.916656 15.5015 0.916656" fill="#EAEAEA"/>
</svg>
