<svg width="33" height="33" viewBox="0 0 33 33" fill="none" xmlns="http://www.w3.org/2000/svg">
<path d="M29.0417 0.375C29.992 0.375 30.9035 0.752529 31.5755 1.42453C32.2475 2.09654 32.625 3.00797 32.625 3.95833V29.0417C32.625 29.992 32.2475 30.9035 31.5755 31.5755C30.9035 32.2475 29.992 32.625 29.0417 32.625H3.95833C3.00797 32.625 2.09654 32.2475 1.42453 31.5755C0.752529 30.9035 0.375 29.992 0.375 29.0417V3.95833C0.375 3.00797 0.752529 2.09654 1.42453 1.42453C2.09654 0.752529 3.00797 0.375 3.95833 0.375H29.0417ZM28.1458 28.1458V18.65C28.1458 17.1009 27.5305 15.6153 26.4351 14.5199C25.3397 13.4245 23.8541 12.8092 22.305 12.8092C20.7821 12.8092 19.0083 13.7408 18.1483 15.1383V13.1496H13.1496V28.1458H18.1483V19.3129C18.1483 17.9333 19.2592 16.8046 20.6388 16.8046C21.304 16.8046 21.942 17.0689 22.4124 17.5393C22.8828 18.0097 23.1471 18.6477 23.1471 19.3129V28.1458H28.1458ZM7.32667 10.3367C8.12497 10.3367 8.89057 10.0195 9.45506 9.45506C10.0195 8.89057 10.3367 8.12497 10.3367 7.32667C10.3367 5.66042 8.99292 4.29875 7.32667 4.29875C6.52361 4.29875 5.75345 4.61776 5.18561 5.18561C4.61776 5.75345 4.29875 6.52361 4.29875 7.32667C4.29875 8.99292 5.66042 10.3367 7.32667 10.3367ZM9.81708 28.1458V13.1496H4.85417V28.1458H9.81708Z" fill="#EAEAEA"/>
</svg>
