<svg width="67" height="45" viewBox="0 0 67 45" fill="none" xmlns="http://www.w3.org/2000/svg">
<path d="M33.5 13.625C31.1462 13.625 28.8888 14.56 27.2244 16.2244C25.56 17.8888 24.625 20.1462 24.625 22.5C24.625 24.8538 25.56 27.1112 27.2244 28.7756C28.8888 30.44 31.1462 31.375 33.5 31.375C35.8538 31.375 38.1112 30.44 39.7756 28.7756C41.44 27.1112 42.375 24.8538 42.375 22.5C42.375 20.1462 41.44 17.8888 39.7756 16.2244C38.1112 14.56 35.8538 13.625 33.5 13.625ZM33.5 37.2917C29.577 37.2917 25.8147 35.7333 23.0407 32.9593C20.2667 30.1853 18.7083 26.423 18.7083 22.5C18.7083 18.577 20.2667 14.8147 23.0407 12.0407C25.8147 9.26674 29.577 7.70833 33.5 7.70833C37.423 7.70833 41.1853 9.26674 43.9593 12.0407C46.7333 14.8147 48.2917 18.577 48.2917 22.5C48.2917 26.423 46.7333 30.1853 43.9593 32.9593C41.1853 35.7333 37.423 37.2917 33.5 37.2917ZM33.5 0.3125C18.7083 0.3125 6.07625 9.51292 0.958328 22.5C6.07625 35.4871 18.7083 44.6875 33.5 44.6875C48.2917 44.6875 60.9237 35.4871 66.0417 22.5C60.9237 9.51292 48.2917 0.3125 33.5 0.3125Z" fill="#EAEAEA"/>
</svg>
