<svg width="31" height="25" viewBox="0 0 31 25" fill="none" xmlns="http://www.w3.org/2000/svg">
<path fill-rule="evenodd" clip-rule="evenodd" d="M15.5 0.833344C16.7469 0.833344 18.0259 0.865427 19.2654 0.917927L20.7296 0.987927L22.1311 1.07105L23.4436 1.16001L24.6423 1.25334C25.9432 1.35292 27.1673 1.90806 28.0993 2.82111C29.0313 3.73416 29.6115 4.94663 29.7377 6.24522L29.7961 6.86501L29.9054 8.19209C30.0075 9.5673 30.0834 11.0665 30.0834 12.5C30.0834 13.9336 30.0075 15.4327 29.9054 16.8079L29.7961 18.135C29.7771 18.3479 29.7582 18.5536 29.7377 18.7548C29.6114 20.0536 29.0311 21.2663 28.0988 22.1794C27.1665 23.0924 25.942 23.6474 24.6409 23.7467L23.445 23.8386L22.1325 23.929L20.7296 24.0121L19.2654 24.0821C18.011 24.1366 16.7556 24.1648 15.5 24.1667C14.2444 24.1648 12.989 24.1366 11.7346 24.0821L10.2704 24.0121L8.86898 23.929L7.55648 23.8386L6.35773 23.7467C5.05682 23.6471 3.8327 23.092 2.90071 22.1789C1.96872 21.2659 1.38857 20.0534 1.26231 18.7548L1.20398 18.135L1.0946 16.8079C0.983096 15.3746 0.923751 13.9377 0.916687 12.5C0.916687 11.0665 0.99252 9.5673 1.0946 8.19209L1.20398 6.86501C1.22294 6.65209 1.2419 6.44647 1.26231 6.24522C1.38852 4.94686 1.96846 3.73457 2.90015 2.82155C3.83185 1.90853 5.05562 1.35324 6.35627 1.25334L7.55356 1.16001L8.86606 1.07105L10.269 0.987927L11.7331 0.917927C12.988 0.863433 14.2439 0.835232 15.5 0.833344ZM12.5834 8.96355V16.0365C12.5834 16.7102 13.3125 17.1302 13.8959 16.7948L20.0209 13.2583C20.1541 13.1816 20.2648 13.0711 20.3418 12.938C20.4188 12.8049 20.4593 12.6538 20.4593 12.5C20.4593 12.3462 20.4188 12.1952 20.3418 12.062C20.2648 11.9289 20.1541 11.8184 20.0209 11.7417L13.8959 8.20668C13.7628 8.12986 13.6119 8.08943 13.4582 8.08945C13.3046 8.08947 13.1536 8.12995 13.0206 8.20682C12.8876 8.28368 12.7771 8.39422 12.7004 8.52732C12.6236 8.66041 12.5833 8.81137 12.5834 8.96501V8.96355Z" fill="#EAEAEA"/>
</svg>
