<svg width="36" height="22" viewBox="0 0 36 22" fill="none" xmlns="http://www.w3.org/2000/svg">
<path d="M18 0.25C19.3924 0.25 20.7277 0.803124 21.7123 1.78769C22.6969 2.77226 23.25 4.10761 23.25 5.5C23.25 6.89239 22.6969 8.22774 21.7123 9.21231C20.7277 10.1969 19.3924 10.75 18 10.75C16.6076 10.75 15.2723 10.1969 14.2877 9.21231C13.3031 8.22774 12.75 6.89239 12.75 5.5C12.75 4.10761 13.3031 2.77226 14.2877 1.78769C15.2723 0.803124 16.6076 0.25 18 0.25ZM7.5 4C8.34 4 9.12 4.225 9.795 4.63C9.57 6.775 10.2 8.905 11.49 10.57C10.74 12.01 9.24 13 7.5 13C6.30653 13 5.16193 12.5259 4.31802 11.682C3.47411 10.8381 3 9.69347 3 8.5C3 7.30653 3.47411 6.16193 4.31802 5.31802C5.16193 4.47411 6.30653 4 7.5 4ZM28.5 4C29.6935 4 30.8381 4.47411 31.682 5.31802C32.5259 6.16193 33 7.30653 33 8.5C33 9.69347 32.5259 10.8381 31.682 11.682C30.8381 12.5259 29.6935 13 28.5 13C26.76 13 25.26 12.01 24.51 10.57C25.8172 8.88134 26.4242 6.75424 26.205 4.63C26.88 4.225 27.66 4 28.5 4ZM8.25 19.375C8.25 16.27 12.615 13.75 18 13.75C23.385 13.75 27.75 16.27 27.75 19.375V22H8.25V19.375ZM0 22V19.75C0 17.665 2.835 15.91 6.675 15.4C5.79 16.42 5.25 17.83 5.25 19.375V22H0ZM36 22H30.75V19.375C30.75 17.83 30.21 16.42 29.325 15.4C33.165 15.91 36 17.665 36 19.75V22Z" fill="#EAEAEA"/>
</svg>
